<svg xmlns="http://www.w3.org/2000/svg" xmlns:xlink="http://www.w3.org/1999/xlink" width="500" zoomAndPan="magnify" viewBox="0 0 375 374.999991" height="500" preserveAspectRatio="xMidYMid meet" version="1.0"><defs><g/></defs><path stroke-linecap="butt" transform="matrix(0, -2.264727, 2.264727, 0, 181.835719, 272.232141)" fill="none" stroke-linejoin="miter" d="M 0.000738179 2.499363 L 82.642122 2.499363 " stroke="#fff8e3" stroke-width="5" stroke-opacity="1" stroke-miterlimit="4"/><path stroke-linecap="butt" transform="matrix(0, -2.264727, 2.264727, 0, 138.276967, 272.224288)" fill="none" stroke-linejoin="miter" d="M 0.000720384 2.499433 L 66.259747 2.499433 " stroke="#fff8e3" stroke-width="5" stroke-opacity="1" stroke-miterlimit="4"/><path stroke-linecap="butt" transform="matrix(0, -2.264727, 2.264727, 0, 225.378741, 272.224288)" fill="none" stroke-linejoin="miter" d="M 0.000720384 2.49934 L 66.259747 2.49934 " stroke="#fff8e3" stroke-width="5" stroke-opacity="1" stroke-miterlimit="4"/><path stroke-linecap="butt" transform="matrix(0, -2.264727, 2.264727, 0, 94.735546, 272.233782)" fill="none" stroke-linejoin="miter" d="M -0.000261787 2.500474 L 50.469747 2.500474 " stroke="#fff8e3" stroke-width="5" stroke-opacity="1" stroke-miterlimit="4"/><path stroke-linecap="butt" transform="matrix(0, -2.264727, 2.264727, 0, 268.939117, 272.233782)" fill="none" stroke-linejoin="miter" d="M -0.000261787 2.500277 L 50.469747 2.500277 " stroke="#fff8e3" stroke-width="5" stroke-opacity="1" stroke-miterlimit="4"/><g fill="#fff8e3" fill-opacity="1"><g transform="translate(73.867661, 322.99273)"><g><path d="M 3.90625 0 L 3.90625 -36.25 L 15.765625 -36.25 L 25.703125 -8.953125 L 25.984375 -8.953125 L 35.75 -36.25 L 47.125 -36.25 L 47.125 0 L 39.59375 0 L 40.03125 -28.234375 L 39.484375 -28.234375 L 28.71875 0 L 22.03125 0 L 11.375 -28.234375 L 10.8125 -28.234375 L 11.265625 0 Z M 3.90625 0 "/></g></g></g><g fill="#fff8e3" fill-opacity="1"><g transform="translate(131.318299, 322.99273)"><g><path d="M 0.9375 0 L 13.296875 -36.25 L 24.765625 -36.25 L 37.1875 0 L 28.5625 0 L 19.4375 -29.984375 L 18.671875 -29.984375 L 9.5 0 Z M 7.859375 -7.078125 L 7.859375 -12.515625 L 31.359375 -12.515625 L 31.359375 -7.078125 Z M 7.859375 -7.078125 "/></g></g></g><g fill="#fff8e3" fill-opacity="1"><g transform="translate(175.91692, 322.99273)"><g><path d="M 3.90625 0 L 3.90625 -36.25 L 18.625 -36.25 C 20.375 -36.25 22.019531 -36.109375 23.5625 -35.828125 C 25.101562 -35.554688 26.503906 -35.144531 27.765625 -34.59375 C 29.023438 -34.050781 30.117188 -33.359375 31.046875 -32.515625 C 31.984375 -31.671875 32.691406 -30.671875 33.171875 -29.515625 C 33.648438 -28.367188 33.890625 -27.0625 33.890625 -25.59375 C 33.890625 -24.3125 33.695312 -23.15625 33.3125 -22.125 C 32.925781 -21.101562 32.328125 -20.195312 31.515625 -19.40625 C 30.710938 -18.625 29.695312 -17.984375 28.46875 -17.484375 C 27.25 -16.992188 25.832031 -16.65625 24.21875 -16.46875 L 24.21875 -15.703125 C 26.082031 -15.484375 27.582031 -15.046875 28.71875 -14.390625 C 29.851562 -13.734375 30.738281 -12.835938 31.375 -11.703125 C 32.019531 -10.566406 32.582031 -9.15625 33.0625 -7.46875 L 35.203125 0 L 26.46875 0 L 24.828125 -6.859375 C 24.492188 -8.328125 24.015625 -9.484375 23.390625 -10.328125 C 22.773438 -11.171875 22 -11.753906 21.0625 -12.078125 C 20.125 -12.410156 19 -12.578125 17.6875 -12.578125 L 11.8125 -12.578125 L 11.8125 0 Z M 11.8125 -18.5625 L 16.921875 -18.5625 C 17.535156 -18.5625 18.226562 -18.578125 19 -18.609375 C 19.769531 -18.648438 20.546875 -18.757812 21.328125 -18.9375 C 22.117188 -19.125 22.832031 -19.421875 23.46875 -19.828125 C 24.113281 -20.234375 24.644531 -20.800781 25.0625 -21.53125 C 25.488281 -22.257812 25.703125 -23.191406 25.703125 -24.328125 C 25.703125 -25.503906 25.5 -26.457031 25.09375 -27.1875 C 24.695312 -27.914062 24.1875 -28.484375 23.5625 -28.890625 C 22.9375 -29.296875 22.273438 -29.585938 21.578125 -29.765625 C 20.890625 -29.953125 20.234375 -30.0625 19.609375 -30.09375 C 18.984375 -30.132812 18.488281 -30.15625 18.125 -30.15625 L 11.8125 -30.15625 Z M 11.8125 -18.5625 "/></g></g></g><g fill="#fff8e3" fill-opacity="1"><g transform="translate(219.362164, 322.99273)"><g><path d="M 20.484375 0.765625 C 17.660156 0.765625 15.140625 0.363281 12.921875 -0.4375 C 10.710938 -1.238281 8.835938 -2.425781 7.296875 -4 C 5.765625 -5.582031 4.59375 -7.523438 3.78125 -9.828125 C 2.976562 -12.140625 2.578125 -14.773438 2.578125 -17.734375 C 2.578125 -20.816406 2.988281 -23.535156 3.8125 -25.890625 C 4.632812 -28.253906 5.816406 -30.269531 7.359375 -31.9375 C 8.898438 -33.601562 10.726562 -34.863281 12.84375 -35.71875 C 14.96875 -36.582031 17.347656 -37.015625 19.984375 -37.015625 C 22.035156 -37.015625 23.921875 -36.738281 25.640625 -36.1875 C 27.367188 -35.644531 28.851562 -34.867188 30.09375 -33.859375 C 31.34375 -32.847656 32.3125 -31.617188 33 -30.171875 C 33.695312 -28.734375 34.046875 -27.113281 34.046875 -25.3125 L 26.75 -23.453125 C 26.75 -25.023438 26.414062 -26.332031 25.75 -27.375 C 25.09375 -28.414062 24.234375 -29.203125 23.171875 -29.734375 C 22.109375 -30.265625 20.957031 -30.53125 19.71875 -30.53125 C 18.613281 -30.53125 17.539062 -30.3125 16.5 -29.875 C 15.457031 -29.4375 14.503906 -28.734375 13.640625 -27.765625 C 12.785156 -26.796875 12.109375 -25.53125 11.609375 -23.96875 C 11.117188 -22.414062 10.875 -20.503906 10.875 -18.234375 C 10.875 -15.304688 11.296875 -12.914062 12.140625 -11.0625 C 12.984375 -9.21875 14.144531 -7.863281 15.625 -7 C 17.101562 -6.144531 18.78125 -5.71875 20.65625 -5.71875 C 22.625 -5.71875 24.164062 -6.128906 25.28125 -6.953125 C 26.40625 -7.773438 27.210938 -8.84375 27.703125 -10.15625 C 28.203125 -11.476562 28.46875 -12.867188 28.5 -14.328125 L 35.484375 -13.234375 C 35.441406 -11.296875 35.15625 -9.472656 34.625 -7.765625 C 34.09375 -6.066406 33.234375 -4.578125 32.046875 -3.296875 C 30.859375 -2.015625 29.3125 -1.015625 27.40625 -0.296875 C 25.5 0.410156 23.191406 0.765625 20.484375 0.765625 Z M 20.484375 0.765625 "/></g></g></g><g fill="#fff8e3" fill-opacity="1"><g transform="translate(262.97216, 322.99273)"><g><path d="M 0.9375 0 L 13.296875 -36.25 L 24.765625 -36.25 L 37.1875 0 L 28.5625 0 L 19.4375 -29.984375 L 18.671875 -29.984375 L 9.5 0 Z M 7.859375 -7.078125 L 7.859375 -12.515625 L 31.359375 -12.515625 L 31.359375 -7.078125 Z M 7.859375 -7.078125 "/></g></g></g></svg>